<svg xmlns="http://www.w3.org/2000/svg" xmlns:xlink="http://www.w3.org/1999/xlink" width="500" zoomAndPan="magnify" viewBox="0 0 375 374.999991" height="500" preserveAspectRatio="xMidYMid meet" version="1.0"><defs><g/><clipPath id="0b818a7948"><path d="M 143 81.597656 L 178 81.597656 L 178 116 L 143 116 Z M 143 81.597656 " clip-rule="nonzero"/></clipPath><clipPath id="0a19fecea6"><path d="M 184 81.597656 L 219 81.597656 L 219 116 L 184 116 Z M 184 81.597656 " clip-rule="nonzero"/></clipPath><clipPath id="3a60a94f01"><path d="M 137.757812 159 L 237.507812 159 L 237.507812 210.597656 L 137.757812 210.597656 Z M 137.757812 159 " clip-rule="nonzero"/></clipPath></defs><g clip-path="url(#0b818a7948)"><path fill="#000000" d="M 160.753906 115.414062 C 151.429688 115.414062 143.847656 107.828125 143.847656 98.507812 C 143.847656 89.183594 151.429688 81.601562 160.753906 81.601562 C 170.074219 81.601562 177.660156 89.183594 177.660156 98.507812 C 177.660156 107.828125 170.074219 115.414062 160.753906 115.414062 Z M 160.753906 85.132812 C 153.378906 85.132812 147.378906 91.132812 147.378906 98.507812 C 147.378906 105.882812 153.378906 111.882812 160.753906 111.882812 C 168.128906 111.882812 174.128906 105.882812 174.128906 98.507812 C 174.128906 91.132812 168.128906 85.132812 160.753906 85.132812 Z M 160.753906 85.132812 " fill-opacity="1" fill-rule="nonzero"/></g><path fill="#000000" d="M 162.265625 106.328125 L 156.210938 106.328125 C 155.234375 106.328125 154.445312 105.539062 154.445312 104.5625 C 154.445312 103.589844 155.234375 102.796875 156.210938 102.796875 L 162.265625 102.796875 C 162.964844 102.796875 163.53125 102.230469 163.53125 101.535156 C 163.53125 100.839844 162.964844 100.273438 162.265625 100.273438 L 159.238281 100.273438 C 156.597656 100.273438 154.445312 98.121094 154.445312 95.480469 C 154.445312 92.835938 156.597656 90.683594 159.238281 90.683594 L 165.296875 90.683594 C 166.269531 90.683594 167.0625 91.476562 167.0625 92.449219 C 167.0625 93.425781 166.269531 94.21875 165.296875 94.21875 L 159.238281 94.21875 C 158.542969 94.21875 157.976562 94.785156 157.976562 95.480469 C 157.976562 96.175781 158.542969 96.742188 159.238281 96.742188 L 162.265625 96.742188 C 164.910156 96.742188 167.0625 98.890625 167.0625 101.535156 C 167.0625 104.179688 164.910156 106.328125 162.265625 106.328125 Z M 162.265625 106.328125 " fill-opacity="1" fill-rule="nonzero"/><path fill="#000000" d="M 160.753906 109.359375 C 159.777344 109.359375 158.988281 108.566406 158.988281 107.589844 L 158.988281 104.5625 C 158.988281 103.589844 159.777344 102.796875 160.753906 102.796875 C 161.730469 102.796875 162.519531 103.589844 162.519531 104.5625 L 162.519531 107.589844 C 162.519531 108.566406 161.730469 109.359375 160.753906 109.359375 Z M 160.753906 109.359375 " fill-opacity="1" fill-rule="nonzero"/><path fill="#000000" d="M 160.753906 94.21875 C 159.777344 94.21875 158.988281 93.425781 158.988281 92.453125 L 158.988281 89.421875 C 158.988281 88.449219 159.777344 87.65625 160.753906 87.65625 C 161.730469 87.65625 162.519531 88.449219 162.519531 89.421875 L 162.519531 92.453125 C 162.519531 93.425781 161.730469 94.21875 160.753906 94.21875 Z M 160.753906 94.21875 " fill-opacity="1" fill-rule="nonzero"/><g clip-path="url(#0a19fecea6)"><path fill="#000000" d="M 201.632812 115.414062 C 192.308594 115.414062 184.726562 107.828125 184.726562 98.507812 C 184.726562 89.183594 192.308594 81.601562 201.632812 81.601562 C 210.953125 81.601562 218.539062 89.183594 218.539062 98.507812 C 218.539062 107.828125 210.953125 115.414062 201.632812 115.414062 Z M 201.632812 85.132812 C 194.257812 85.132812 188.257812 91.132812 188.257812 98.507812 C 188.257812 105.882812 194.257812 111.882812 201.632812 111.882812 C 209.007812 111.882812 215.007812 105.882812 215.007812 98.507812 C 215.007812 91.132812 209.007812 85.132812 201.632812 85.132812 Z M 201.632812 85.132812 " fill-opacity="1" fill-rule="nonzero"/></g><g clip-path="url(#3a60a94f01)"><path fill="#000000" d="M 187.5 210.796875 C 160.089844 210.796875 137.792969 188.496094 137.792969 161.085938 C 137.792969 160.113281 138.582031 159.320312 139.558594 159.320312 L 235.445312 159.320312 C 236.421875 159.320312 237.210938 160.113281 237.210938 161.085938 C 237.210938 188.496094 214.910156 210.796875 187.5 210.796875 Z M 141.355469 162.851562 C 142.285156 187.5 162.628906 207.265625 187.5 207.265625 C 212.375 207.265625 232.714844 187.5 233.644531 162.851562 Z M 141.355469 162.851562 " fill-opacity="1" fill-rule="nonzero"/></g><path fill="#000000" d="M 210.933594 204.285156 C 210.285156 204.285156 209.664062 203.929688 209.351562 203.308594 L 205.5 195.605469 C 205.0625 194.730469 204.121094 194.25 203.160156 194.414062 L 200.085938 194.925781 C 198.078125 195.253906 196.03125 194.492188 194.730469 192.9375 L 191.761719 189.371094 C 191.007812 188.464844 189.675781 188.3125 188.734375 189.019531 L 183.882812 192.65625 C 182.878906 193.40625 181.6875 193.804688 180.441406 193.804688 C 178.6875 193.804688 177.050781 193.019531 175.953125 191.648438 C 175.535156 191.125 174.910156 190.824219 174.238281 190.820312 C 174.234375 190.820312 174.230469 190.820312 174.226562 190.820312 C 173.558594 190.820312 172.933594 191.113281 172.511719 191.632812 L 163.585938 202.542969 C 162.96875 203.296875 161.855469 203.40625 161.101562 202.789062 C 160.347656 202.171875 160.234375 201.058594 160.851562 200.304688 L 169.78125 189.394531 C 170.875 188.054688 172.496094 187.289062 174.226562 187.289062 C 174.238281 187.289062 174.246094 187.289062 174.257812 187.289062 C 176 187.296875 177.621094 188.082031 178.710938 189.441406 C 179.132812 189.96875 179.765625 190.273438 180.441406 190.273438 C 180.921875 190.273438 181.378906 190.117188 181.765625 189.828125 L 186.617188 186.191406 C 189.0625 184.359375 192.515625 184.761719 194.472656 187.109375 L 197.445312 190.675781 C 197.945312 191.273438 198.734375 191.566406 199.507812 191.441406 L 202.578125 190.929688 C 205.082031 190.511719 207.523438 191.753906 208.660156 194.023438 L 212.511719 201.730469 C 212.949219 202.601562 212.59375 203.664062 211.722656 204.097656 C 211.46875 204.226562 211.199219 204.285156 210.933594 204.285156 Z M 210.933594 204.285156 " fill-opacity="1" fill-rule="nonzero"/><path fill="#000000" d="M 231.914062 162.347656 L 204.660156 162.347656 C 203.683594 162.347656 202.894531 161.558594 202.894531 160.582031 L 202.894531 124.246094 C 202.894531 123.269531 203.683594 122.480469 204.660156 122.480469 L 231.914062 122.480469 C 232.886719 122.480469 233.679688 123.269531 233.679688 124.246094 L 233.679688 160.582031 C 233.679688 161.558594 232.886719 162.347656 231.914062 162.347656 Z M 206.425781 158.816406 L 230.144531 158.816406 L 230.144531 126.011719 L 206.425781 126.011719 Z M 206.425781 158.816406 " fill-opacity="1" fill-rule="nonzero"/><path fill="#000000" d="M 227.371094 126.011719 L 209.203125 126.011719 C 208.226562 126.011719 207.4375 125.222656 207.4375 124.246094 L 207.4375 118.191406 C 207.4375 117.214844 208.226562 116.421875 209.203125 116.421875 L 227.371094 116.421875 C 228.34375 116.421875 229.136719 117.214844 229.136719 118.191406 L 229.136719 124.246094 C 229.136719 125.222656 228.347656 126.011719 227.371094 126.011719 Z M 210.96875 122.480469 L 225.605469 122.480469 L 225.605469 119.957031 L 210.96875 119.957031 Z M 210.96875 122.480469 " fill-opacity="1" fill-rule="nonzero"/><path fill="#000000" d="M 204.660156 162.347656 L 180.4375 162.347656 C 179.460938 162.347656 178.667969 161.558594 178.667969 160.582031 L 178.667969 140.898438 C 178.667969 139.925781 179.460938 139.132812 180.4375 139.132812 L 204.660156 139.132812 C 205.636719 139.132812 206.425781 139.925781 206.425781 140.898438 L 206.425781 160.582031 C 206.425781 161.558594 205.636719 162.347656 204.660156 162.347656 Z M 182.203125 158.816406 L 202.894531 158.816406 L 202.894531 142.664062 L 182.203125 142.664062 Z M 182.203125 158.816406 " fill-opacity="1" fill-rule="nonzero"/><path fill="#000000" d="M 159.238281 162.347656 L 142.585938 162.347656 C 141.609375 162.347656 140.820312 161.558594 140.820312 160.582031 L 140.820312 133.328125 C 140.820312 132.355469 141.609375 131.5625 142.585938 131.5625 L 159.238281 131.5625 C 160.214844 131.5625 161.003906 132.355469 161.003906 133.328125 L 161.003906 160.582031 C 161.003906 161.558594 160.214844 162.347656 159.238281 162.347656 Z M 144.351562 158.816406 L 157.472656 158.816406 L 157.472656 135.097656 L 144.351562 135.097656 Z M 144.351562 158.816406 " fill-opacity="1" fill-rule="nonzero"/><path fill="#000000" d="M 171.351562 162.347656 L 159.238281 162.347656 C 158.265625 162.347656 157.472656 161.558594 157.472656 160.582031 L 157.472656 146.957031 C 157.472656 145.980469 158.265625 145.191406 159.238281 145.191406 L 171.351562 145.191406 C 172.328125 145.191406 173.117188 145.980469 173.117188 146.957031 L 173.117188 160.582031 C 173.117188 161.558594 172.328125 162.347656 171.351562 162.347656 Z M 161.003906 158.816406 L 169.585938 158.816406 L 169.585938 148.722656 L 161.003906 148.722656 Z M 161.003906 158.816406 " fill-opacity="1" fill-rule="nonzero"/><path fill="#000000" d="M 225.855469 138.125 L 210.714844 138.125 C 209.742188 138.125 208.949219 137.332031 208.949219 136.359375 L 208.949219 130.300781 C 208.949219 129.328125 209.742188 128.535156 210.714844 128.535156 L 225.855469 128.535156 C 226.832031 128.535156 227.621094 129.328125 227.621094 130.300781 L 227.621094 136.359375 C 227.621094 137.332031 226.832031 138.125 225.855469 138.125 Z M 212.480469 134.589844 L 224.089844 134.589844 L 224.089844 132.066406 L 212.480469 132.066406 Z M 212.480469 134.589844 " fill-opacity="1" fill-rule="nonzero"/><path fill="#000000" d="M 225.855469 150.234375 L 210.714844 150.234375 C 209.742188 150.234375 208.949219 149.445312 208.949219 148.46875 L 208.949219 142.414062 C 208.949219 141.4375 209.742188 140.648438 210.714844 140.648438 L 225.855469 140.648438 C 226.832031 140.648438 227.621094 141.4375 227.621094 142.414062 L 227.621094 148.46875 C 227.621094 149.445312 226.832031 150.234375 225.855469 150.234375 Z M 212.480469 146.703125 L 224.089844 146.703125 L 224.089844 144.179688 L 212.480469 144.179688 Z M 212.480469 146.703125 " fill-opacity="1" fill-rule="nonzero"/><path fill="#000000" d="M 197.089844 150.234375 L 188.003906 150.234375 C 187.03125 150.234375 186.238281 149.445312 186.238281 148.46875 C 186.238281 147.496094 187.03125 146.703125 188.003906 146.703125 L 197.089844 146.703125 C 198.066406 146.703125 198.855469 147.496094 198.855469 148.46875 C 198.855469 149.445312 198.066406 150.234375 197.089844 150.234375 Z M 197.089844 150.234375 " fill-opacity="1" fill-rule="nonzero"/><path fill="#000000" d="M 197.089844 156.292969 L 188.003906 156.292969 C 187.03125 156.292969 186.238281 155.5 186.238281 154.527344 C 186.238281 153.550781 187.03125 152.761719 188.003906 152.761719 L 197.089844 152.761719 C 198.066406 152.761719 198.855469 153.550781 198.855469 154.527344 C 198.855469 155.5 198.066406 156.292969 197.089844 156.292969 Z M 197.089844 156.292969 " fill-opacity="1" fill-rule="nonzero"/><path fill="#000000" d="M 154.699219 135.097656 L 145.613281 135.097656 C 144.636719 135.097656 143.847656 134.304688 143.847656 133.328125 L 143.847656 127.273438 C 143.847656 126.296875 144.636719 125.507812 145.613281 125.507812 L 154.699219 125.507812 C 155.671875 125.507812 156.464844 126.296875 156.464844 127.273438 L 156.464844 133.328125 C 156.464844 134.304688 155.671875 135.097656 154.699219 135.097656 Z M 147.378906 131.5625 L 152.929688 131.5625 L 152.929688 129.039062 L 147.378906 129.039062 Z M 147.378906 131.5625 " fill-opacity="1" fill-rule="nonzero"/><path fill="#000000" d="M 153.183594 144.179688 L 148.640625 144.179688 C 147.667969 144.179688 146.875 143.390625 146.875 142.414062 C 146.875 141.4375 147.667969 140.648438 148.640625 140.648438 L 153.183594 140.648438 C 154.160156 140.648438 154.949219 141.4375 154.949219 142.414062 C 154.949219 143.390625 154.160156 144.179688 153.183594 144.179688 Z M 153.183594 144.179688 " fill-opacity="1" fill-rule="nonzero"/><path fill="#000000" d="M 153.183594 150.234375 L 148.640625 150.234375 C 147.667969 150.234375 146.875 149.445312 146.875 148.46875 C 146.875 147.496094 147.667969 146.703125 148.640625 146.703125 L 153.183594 146.703125 C 154.160156 146.703125 154.949219 147.496094 154.949219 148.46875 C 154.949219 149.445312 154.160156 150.234375 153.183594 150.234375 Z M 153.183594 150.234375 " fill-opacity="1" fill-rule="nonzero"/><path fill="#000000" d="M 218.078125 199.78125 C 217.429688 199.78125 216.808594 199.425781 216.496094 198.804688 L 211.257812 188.328125 C 210.878906 187.574219 210.6875 186.761719 210.6875 185.921875 C 210.6875 183.355469 212.511719 181.132812 215.027344 180.628906 C 215.890625 180.457031 216.519531 179.691406 216.519531 178.804688 L 216.519531 175.464844 C 216.519531 173.042969 218.152344 170.902344 220.492188 170.261719 L 234.464844 166.453125 C 234.496094 166.441406 234.53125 166.433594 234.566406 166.425781 C 235.519531 166.226562 236.460938 166.835938 236.664062 167.792969 C 236.859375 168.730469 236.277344 169.648438 235.355469 169.871094 L 221.421875 173.667969 C 220.617188 173.890625 220.050781 174.628906 220.050781 175.464844 L 220.050781 178.804688 C 220.050781 181.371094 218.230469 183.59375 215.71875 184.09375 C 214.734375 184.289062 214.21875 185.164062 214.21875 185.921875 C 214.21875 186.210938 214.289062 186.488281 214.417969 186.75 L 219.65625 197.226562 C 220.09375 198.101562 219.738281 199.160156 218.867188 199.597656 C 218.613281 199.722656 218.34375 199.78125 218.078125 199.78125 Z M 218.078125 199.78125 " fill-opacity="1" fill-rule="nonzero"/><path fill="#000000" d="M 156.570312 199.484375 C 156.304688 199.484375 156.035156 199.425781 155.78125 199.296875 C 154.90625 198.863281 154.554688 197.800781 154.988281 196.929688 L 160.078125 186.75 C 160.210938 186.488281 160.277344 186.210938 160.277344 185.921875 C 160.277344 185.160156 159.761719 184.289062 158.78125 184.09375 C 156.269531 183.59375 154.445312 181.367188 154.445312 178.804688 L 154.445312 175.464844 C 154.445312 174.628906 153.882812 173.890625 153.074219 173.667969 L 139.632812 170.003906 C 138.691406 169.746094 138.136719 168.773438 138.394531 167.835938 C 138.648438 166.894531 139.621094 166.335938 140.5625 166.59375 L 154.003906 170.261719 C 156.34375 170.902344 157.976562 173.042969 157.976562 175.464844 L 157.976562 178.804688 C 157.976562 179.691406 158.605469 180.457031 159.472656 180.628906 C 161.984375 181.132812 163.808594 183.359375 163.808594 185.921875 C 163.808594 186.761719 163.617188 187.574219 163.238281 188.328125 L 158.148438 198.507812 C 157.839844 199.128906 157.214844 199.484375 156.570312 199.484375 Z M 156.570312 199.484375 " fill-opacity="1" fill-rule="nonzero"/><path fill="#000000" d="M 204.660156 107.84375 L 203.144531 107.84375 C 197.996094 107.84375 193.808594 103.65625 193.808594 98.507812 C 193.808594 93.359375 197.996094 89.171875 203.144531 89.171875 L 204.660156 89.171875 C 205.636719 89.171875 206.425781 89.960938 206.425781 90.9375 C 206.425781 91.914062 205.636719 92.703125 204.660156 92.703125 L 203.144531 92.703125 C 199.945312 92.703125 197.34375 95.308594 197.34375 98.507812 C 197.34375 101.707031 199.945312 104.3125 203.144531 104.3125 L 204.660156 104.3125 C 205.636719 104.3125 206.425781 105.101562 206.425781 106.078125 C 206.425781 107.050781 205.636719 107.84375 204.660156 107.84375 Z M 204.660156 107.84375 " fill-opacity="1" fill-rule="nonzero"/><path fill="#000000" d="M 204.660156 100.273438 L 195.574219 100.273438 C 194.601562 100.273438 193.808594 99.484375 193.808594 98.507812 C 193.808594 97.53125 194.601562 96.742188 195.574219 96.742188 L 204.660156 96.742188 C 205.636719 96.742188 206.425781 97.53125 206.425781 98.507812 C 206.425781 99.484375 205.636719 100.273438 204.660156 100.273438 Z M 204.660156 100.273438 " fill-opacity="1" fill-rule="nonzero"/><path fill="#000000" d="M 189.519531 131.3125 C 188.546875 131.3125 187.753906 130.519531 187.753906 129.546875 C 187.753906 125.511719 184.472656 122.226562 180.4375 122.226562 C 176.402344 122.226562 173.117188 125.511719 173.117188 129.546875 C 173.117188 130.519531 172.328125 131.3125 171.351562 131.3125 C 170.375 131.3125 169.585938 130.519531 169.585938 129.546875 C 169.585938 123.5625 174.453125 118.695312 180.4375 118.695312 C 186.417969 118.695312 191.285156 123.5625 191.285156 129.546875 C 191.285156 130.519531 190.496094 131.3125 189.519531 131.3125 Z M 189.519531 131.3125 " fill-opacity="1" fill-rule="nonzero"/><path fill="#000000" d="M 183.464844 132.066406 C 182.488281 132.066406 181.699219 131.277344 181.699219 130.300781 C 181.699219 129.605469 181.132812 129.039062 180.4375 129.039062 C 179.738281 129.039062 179.171875 129.605469 179.171875 130.300781 C 179.171875 131.277344 178.382812 132.066406 177.40625 132.066406 C 176.433594 132.066406 175.640625 131.277344 175.640625 130.300781 C 175.640625 127.65625 177.792969 125.507812 180.4375 125.507812 C 183.078125 125.507812 185.230469 127.660156 185.230469 130.300781 C 185.230469 131.277344 184.4375 132.066406 183.464844 132.066406 Z M 183.464844 132.066406 " fill-opacity="1" fill-rule="nonzero"/><path fill="#000000" d="M 195.574219 130.554688 C 194.601562 130.554688 193.808594 129.761719 193.808594 128.789062 C 193.808594 121.414062 187.808594 115.414062 180.4375 115.414062 C 173.0625 115.414062 167.0625 121.414062 167.0625 128.789062 C 167.0625 129.761719 166.269531 130.554688 165.296875 130.554688 C 164.320312 130.554688 163.53125 129.761719 163.53125 128.789062 C 163.53125 119.464844 171.113281 111.882812 180.4375 111.882812 C 189.757812 111.882812 197.34375 119.464844 197.34375 128.789062 C 197.34375 129.761719 196.550781 130.554688 195.574219 130.554688 Z M 195.574219 130.554688 " fill-opacity="1" fill-rule="nonzero"/><path fill="#000000" d="M 180.433594 136.609375 C 180.320312 136.609375 180.207031 136.597656 180.089844 136.574219 C 179.980469 136.554688 179.867188 136.519531 179.761719 136.472656 C 179.65625 136.429688 179.550781 136.375 179.457031 136.3125 C 179.359375 136.246094 179.269531 136.171875 179.1875 136.089844 C 178.859375 135.765625 178.667969 135.308594 178.667969 134.84375 C 178.667969 134.378906 178.859375 133.921875 179.1875 133.59375 C 179.269531 133.511719 179.359375 133.4375 179.457031 133.375 C 179.550781 133.3125 179.65625 133.257812 179.761719 133.210938 C 179.867188 133.167969 179.980469 133.136719 180.089844 133.113281 C 180.316406 133.066406 180.554688 133.066406 180.78125 133.113281 C 180.894531 133.136719 181.003906 133.167969 181.113281 133.210938 C 181.21875 133.257812 181.320312 133.3125 181.414062 133.375 C 181.511719 133.4375 181.605469 133.511719 181.6875 133.59375 C 182.011719 133.925781 182.203125 134.378906 182.203125 134.84375 C 182.203125 134.957031 182.191406 135.074219 182.167969 135.1875 C 182.144531 135.300781 182.109375 135.414062 182.066406 135.519531 C 182.023438 135.625 181.96875 135.730469 181.902344 135.824219 C 181.839844 135.921875 181.765625 136.011719 181.6875 136.089844 C 181.605469 136.171875 181.511719 136.246094 181.414062 136.3125 C 181.320312 136.375 181.21875 136.429688 181.113281 136.472656 C 181.003906 136.519531 180.894531 136.554688 180.78125 136.574219 C 180.667969 136.597656 180.550781 136.609375 180.433594 136.609375 Z M 180.433594 136.609375 " fill-opacity="1" fill-rule="nonzero"/><g fill="#000000" fill-opacity="1"><g transform="translate(71.925283, 245.675727)"><g><path d="M 7.21875 -0.0390625 C 5.925781 -0.0390625 4.824219 -1.027344 4.824219 -2.8125 L 4.824219 -23.9375 C 4.824219 -25.761719 5.925781 -26.75 7.21875 -26.75 L 0.0390625 -26.75 C 1.328125 -26.75 2.394531 -25.761719 2.394531 -23.9375 L 2.394531 -2.8125 C 2.394531 -1.027344 1.328125 -0.0390625 0.0390625 -0.0390625 Z M 7.21875 -0.0390625 "/></g></g></g><g fill="#000000" fill-opacity="1"><g transform="translate(81.537018, 245.675727)"><g><path d="M 2.8125 -2.8125 C 2.8125 -1.027344 1.710938 -0.0390625 0.417969 -0.0390625 L 5.890625 -0.0390625 C 4.597656 -0.0390625 3.496094 -1.027344 3.496094 -2.8125 L 3.496094 -24.394531 L 24.847656 0.722656 L 24.886719 -24.011719 L 24.886719 -23.9375 C 24.886719 -25.761719 25.988281 -26.75 27.28125 -26.75 L 21.808594 -26.75 C 23.101562 -26.75 24.203125 -25.761719 24.203125 -23.9375 L 24.203125 -4.445312 L 5.015625 -26.75 L -0.796875 -26.75 C 0.609375 -26.75 1.710938 -26.445312 2.8125 -25.152344 Z M 2.8125 -2.8125 "/></g></g></g><g fill="#000000" fill-opacity="1"><g transform="translate(109.916924, 245.675727)"><g><path d="M -0.0390625 -26.75 C 1.253906 -26.75 2.355469 -25.761719 2.355469 -23.9375 L 2.355469 -2.8125 C 2.355469 -1.027344 1.253906 -0.0390625 -0.0390625 -0.0390625 L 7.144531 -0.0390625 C 5.851562 -0.0390625 4.75 -1.027344 4.75 -2.8125 L 4.75 -13.980469 L 15.199219 -13.980469 C 16.753906 -13.980469 18.007812 -13.144531 18.007812 -11.664062 L 18.007812 -16.792969 C 18.007812 -15.351562 16.753906 -14.476562 15.199219 -14.476562 L 4.75 -14.476562 L 4.75 -23.9375 C 4.75 -25.457031 5.660156 -26.253906 6.726562 -26.253906 L 17.324219 -26.253906 C 20.59375 -26.253906 21.921875 -24.773438 22.492188 -22.722656 L 21.390625 -26.75 Z M -0.0390625 -26.75 "/></g></g></g><g fill="#000000" fill-opacity="1"><g transform="translate(134.763551, 245.675727)"><g><path d="M 7.21875 -0.0390625 C 5.925781 -0.0390625 4.824219 -1.027344 4.824219 -2.8125 L 4.824219 -8.929688 C 10.183594 -8.929688 11.96875 -8.96875 14.398438 -5.738281 C 17.058594 -2.203125 18.351562 0.304688 21.542969 0.304688 C 24.507812 0.304688 26.445312 -1.9375 26.558594 -4.863281 C 25.796875 -2.8125 24.46875 -1.710938 22.910156 -1.710938 C 21.390625 -1.710938 19.605469 -2.773438 17.820312 -5.015625 C 15.996094 -7.371094 13.945312 -8.472656 11.96875 -8.96875 L 14.742188 -8.96875 C 26.863281 -8.96875 26.863281 -26.75 14.742188 -26.75 L 0.0390625 -26.75 C 1.328125 -26.75 2.394531 -25.761719 2.394531 -23.9375 L 2.394531 -2.8125 C 2.394531 -1.027344 1.328125 -0.0390625 0.0390625 -0.0390625 Z M 4.789062 -24.011719 C 4.789062 -25.078125 5.28125 -26.101562 6.421875 -26.292969 L 12.878906 -26.292969 C 23.9375 -26.292969 23.9375 -9.421875 12.878906 -9.421875 L 4.789062 -9.421875 Z M 4.789062 -24.011719 "/></g></g></g><g fill="#000000" fill-opacity="1"><g transform="translate(162.573573, 245.675727)"><g><path d="M 4.597656 -0.0390625 C 3.875 -0.0742188 2.621094 -0.761719 3.230469 -2.128906 L 3.191406 -2.015625 L 5.773438 -7.828125 L 19.949219 -7.828125 L 22.53125 -2.089844 L 22.492188 -2.128906 C 23.101562 -0.761719 21.847656 -0.0742188 21.125 -0.0390625 L 27.773438 -0.0390625 C 26.863281 -0.152344 25.722656 -0.683594 24.960938 -2.164062 L 13.792969 -27.242188 L 2.699219 -1.976562 C 1.9375 -0.609375 0.835938 -0.152344 -0.0742188 -0.0390625 Z M 12.804688 -23.59375 L 19.71875 -8.28125 L 5.964844 -8.28125 Z M 2.964844 -2.582031 C 2.964844 -2.507812 2.925781 -2.46875 2.886719 -2.394531 Z M 2.964844 -2.582031 "/></g></g></g><g fill="#000000" fill-opacity="1"><g transform="translate(191.561353, 245.675727)"><g><path d="M -0.0742188 -22.757812 C 0.492188 -24.8125 1.785156 -26.367188 5.089844 -26.367188 L 11.246094 -26.367188 L 11.246094 -2.851562 C 11.246094 -1.0625 10.144531 -0.0742188 8.851562 -0.0742188 L 16.070312 -0.0742188 C 14.78125 -0.0742188 13.679688 -1.0625 13.679688 -2.851562 L 13.679688 -26.367188 L 19.832031 -26.367188 C 23.0625 -26.367188 24.394531 -24.847656 24.925781 -22.835938 L 23.898438 -26.785156 L 1.027344 -26.785156 Z M 24.925781 -22.835938 C 24.925781 -22.835938 24.925781 -22.796875 24.960938 -22.757812 Z M 24.925781 -22.835938 "/></g></g></g><g fill="#000000" fill-opacity="1"><g transform="translate(218.535544, 245.675727)"><g><path d="M 6.761719 -0.492188 C 5.699219 -0.492188 4.789062 -1.328125 4.789062 -2.8125 L 4.789062 -13.980469 L 15.273438 -13.980469 C 16.832031 -13.980469 18.046875 -13.144531 18.046875 -11.664062 L 18.046875 -16.792969 C 18.046875 -15.351562 16.832031 -14.476562 15.273438 -14.476562 L 4.789062 -14.476562 L 4.789062 -23.9375 C 4.789062 -25.457031 5.699219 -26.253906 6.761719 -26.253906 L 17.402344 -26.253906 C 20.632812 -26.253906 21.960938 -24.8125 22.492188 -22.757812 L 21.46875 -26.75 L 0 -26.75 C 1.292969 -26.75 2.394531 -25.761719 2.394531 -23.9375 L 2.394531 -2.8125 C 2.394531 -1.027344 1.292969 -0.0390625 0 -0.0390625 L 21.46875 -0.0390625 L 22.492188 -3.988281 C 21.960938 -1.976562 20.632812 -0.492188 17.402344 -0.492188 Z M 22.53125 -4.027344 L 22.53125 -4.066406 Z M 22.53125 -4.027344 C 22.492188 -4.027344 22.492188 -4.027344 22.492188 -3.988281 Z M 22.53125 -4.027344 "/></g></g></g><g fill="#000000" fill-opacity="1"><g transform="translate(243.724103, 245.675727)"><g><path d="M 14.285156 0.644531 C 18.464844 0.644531 22.074219 -0.417969 25.039062 -3.648438 L 24.660156 -3.914062 C 22.113281 -0.910156 18.3125 0.152344 14.285156 0.152344 C -1.824219 0.152344 -1.824219 -26.785156 14.285156 -26.785156 C 17.742188 -26.785156 21.277344 -25.875 23.441406 -23.824219 C 22.492188 -23.824219 21.695312 -23.214844 21.695312 -22.226562 C 21.695312 -21.316406 22.417969 -20.59375 23.328125 -20.59375 C 24.203125 -20.59375 24.925781 -21.316406 24.925781 -22.226562 C 24.925781 -22.683594 24.695312 -23.140625 24.355469 -23.40625 C 21.582031 -26.253906 18.390625 -27.28125 14.285156 -27.28125 C -5.242188 -27.28125 -5.242188 0.644531 14.285156 0.644531 Z M 14.285156 0.644531 "/></g></g></g><g fill="#000000" fill-opacity="1"><g transform="translate(271.420142, 245.675727)"><g><path d="M 7.21875 -0.0390625 C 5.925781 -0.0390625 4.824219 -1.027344 4.824219 -2.8125 L 4.824219 -14.019531 L 22.304688 -14.019531 L 22.304688 -2.8125 C 22.304688 -1.027344 21.203125 -0.0390625 19.910156 -0.0390625 L 27.089844 -0.0390625 C 25.796875 -0.0390625 24.734375 -1.027344 24.734375 -2.8125 L 24.734375 -23.9375 C 24.734375 -25.761719 25.796875 -26.75 27.089844 -26.75 L 19.910156 -26.75 C 21.203125 -26.75 22.304688 -25.761719 22.304688 -23.9375 L 22.304688 -14.398438 L 4.824219 -14.398438 L 4.824219 -23.9375 C 4.824219 -25.761719 5.925781 -26.75 7.21875 -26.75 L 0 -26.75 C 1.292969 -26.75 2.394531 -25.761719 2.394531 -23.9375 L 2.394531 -2.8125 C 2.394531 -1.027344 1.292969 -0.0390625 0 -0.0390625 Z M 7.21875 -0.0390625 "/></g></g></g><g fill="#000000" fill-opacity="1"><g transform="translate(140.201458, 258.946125)"><g><path d="M 1.140625 -7 L 1.875 -7 L 1.875 0 L 1.140625 0 Z M 1.140625 -7 "/></g></g></g><g fill="#000000" fill-opacity="1"><g transform="translate(145.960265, 258.946125)"><g><path d="M 6.984375 -7 L 6.984375 0 L 6.375 0 L 1.875 -5.6875 L 1.875 0 L 1.140625 0 L 1.140625 -7 L 1.75 -7 L 6.265625 -1.3125 L 6.265625 -7 Z M 6.984375 -7 "/></g></g></g><g fill="#000000" fill-opacity="1"><g transform="translate(156.82705, 258.946125)"><g><path d="M 2.5 -6.359375 L 0.046875 -6.359375 L 0.046875 -7 L 5.703125 -7 L 5.703125 -6.359375 L 3.234375 -6.359375 L 3.234375 0 L 2.5 0 Z M 2.5 -6.359375 "/></g></g></g><g fill="#000000" fill-opacity="1"><g transform="translate(165.304778, 258.946125)"><g><path d="M 6.09375 -0.640625 L 6.09375 0 L 1.140625 0 L 1.140625 -7 L 5.9375 -7 L 5.9375 -6.359375 L 1.875 -6.359375 L 1.875 -3.875 L 5.5 -3.875 L 5.5 -3.234375 L 1.875 -3.234375 L 1.875 -0.640625 Z M 6.09375 -0.640625 "/></g></g></g><g fill="#000000" fill-opacity="1"><g transform="translate(174.732137, 258.946125)"><g><path d="M 6.0625 -3.5 L 6.78125 -3.5 L 6.78125 -0.828125 C 6.457031 -0.546875 6.070312 -0.328125 5.625 -0.171875 C 5.175781 -0.015625 4.703125 0.0625 4.203125 0.0625 C 3.503906 0.0625 2.875 -0.0859375 2.3125 -0.390625 C 1.757812 -0.703125 1.320312 -1.128906 1 -1.671875 C 0.675781 -2.210938 0.515625 -2.820312 0.515625 -3.5 C 0.515625 -4.175781 0.675781 -4.785156 1 -5.328125 C 1.320312 -5.867188 1.757812 -6.289062 2.3125 -6.59375 C 2.875 -6.90625 3.507812 -7.0625 4.21875 -7.0625 C 4.75 -7.0625 5.238281 -6.972656 5.6875 -6.796875 C 6.132812 -6.628906 6.507812 -6.378906 6.8125 -6.046875 L 6.359375 -5.578125 C 5.804688 -6.128906 5.101562 -6.40625 4.25 -6.40625 C 3.6875 -6.40625 3.175781 -6.28125 2.71875 -6.03125 C 2.257812 -5.78125 1.898438 -5.429688 1.640625 -4.984375 C 1.378906 -4.535156 1.25 -4.039062 1.25 -3.5 C 1.25 -2.957031 1.378906 -2.460938 1.640625 -2.015625 C 1.898438 -1.578125 2.253906 -1.226562 2.703125 -0.96875 C 3.160156 -0.71875 3.671875 -0.59375 4.234375 -0.59375 C 4.953125 -0.59375 5.5625 -0.773438 6.0625 -1.140625 Z M 6.0625 -3.5 "/></g></g></g><g fill="#000000" fill-opacity="1"><g transform="translate(185.199078, 258.946125)"><g><path d="M 5.921875 0 L 4.3125 -2.25 C 4.132812 -2.226562 3.953125 -2.21875 3.765625 -2.21875 L 1.875 -2.21875 L 1.875 0 L 1.140625 0 L 1.140625 -7 L 3.765625 -7 C 4.648438 -7 5.347656 -6.785156 5.859375 -6.359375 C 6.367188 -5.929688 6.625 -5.34375 6.625 -4.59375 C 6.625 -4.050781 6.484375 -3.59375 6.203125 -3.21875 C 5.929688 -2.84375 5.535156 -2.570312 5.015625 -2.40625 L 6.734375 0 Z M 3.734375 -2.84375 C 4.429688 -2.84375 4.960938 -2.992188 5.328125 -3.296875 C 5.691406 -3.609375 5.875 -4.039062 5.875 -4.59375 C 5.875 -5.164062 5.691406 -5.601562 5.328125 -5.90625 C 4.960938 -6.207031 4.429688 -6.359375 3.734375 -6.359375 L 1.875 -6.359375 L 1.875 -2.84375 Z M 3.734375 -2.84375 "/></g></g></g><g fill="#000000" fill-opacity="1"><g transform="translate(195.16622, 258.946125)"><g><path d="M 5.53125 -1.875 L 1.625 -1.875 L 0.796875 0 L 0.015625 0 L 3.21875 -7 L 3.953125 -7 L 7.15625 0 L 6.375 0 Z M 5.265625 -2.46875 L 3.578125 -6.234375 L 1.90625 -2.46875 Z M 5.265625 -2.46875 "/></g></g></g><g fill="#000000" fill-opacity="1"><g transform="translate(205.073387, 258.946125)"><g><path d="M 4.1875 0.0625 C 3.488281 0.0625 2.859375 -0.0859375 2.296875 -0.390625 C 1.742188 -0.703125 1.304688 -1.128906 0.984375 -1.671875 C 0.671875 -2.210938 0.515625 -2.820312 0.515625 -3.5 C 0.515625 -4.175781 0.671875 -4.785156 0.984375 -5.328125 C 1.304688 -5.867188 1.75 -6.289062 2.3125 -6.59375 C 2.875 -6.90625 3.5 -7.0625 4.1875 -7.0625 C 4.707031 -7.0625 5.1875 -6.972656 5.625 -6.796875 C 6.070312 -6.628906 6.445312 -6.378906 6.75 -6.046875 L 6.28125 -5.5625 C 5.726562 -6.125 5.035156 -6.40625 4.203125 -6.40625 C 3.648438 -6.40625 3.144531 -6.273438 2.6875 -6.015625 C 2.238281 -5.765625 1.882812 -5.414062 1.625 -4.96875 C 1.375 -4.53125 1.25 -4.039062 1.25 -3.5 C 1.25 -2.957031 1.375 -2.460938 1.625 -2.015625 C 1.882812 -1.578125 2.238281 -1.226562 2.6875 -0.96875 C 3.144531 -0.71875 3.648438 -0.59375 4.203125 -0.59375 C 5.046875 -0.59375 5.738281 -0.875 6.28125 -1.4375 L 6.75 -0.96875 C 6.445312 -0.632812 6.070312 -0.378906 5.625 -0.203125 C 5.175781 -0.0234375 4.695312 0.0625 4.1875 0.0625 Z M 3.828125 2.203125 C 3.503906 2.203125 3.222656 2.125 2.984375 1.96875 L 3.15625 1.59375 C 3.351562 1.71875 3.570312 1.78125 3.8125 1.78125 C 4.007812 1.78125 4.160156 1.738281 4.265625 1.65625 C 4.378906 1.582031 4.4375 1.46875 4.4375 1.3125 C 4.4375 1.164062 4.382812 1.050781 4.28125 0.96875 C 4.175781 0.882812 4.019531 0.84375 3.8125 0.84375 L 3.59375 0.84375 L 3.828125 -0.0625 L 4.25 -0.0625 L 4.109375 0.515625 C 4.378906 0.546875 4.585938 0.628906 4.734375 0.765625 C 4.878906 0.910156 4.953125 1.097656 4.953125 1.328125 C 4.953125 1.597656 4.847656 1.8125 4.640625 1.96875 C 4.441406 2.125 4.171875 2.203125 3.828125 2.203125 Z M 3.828125 2.203125 "/></g></g></g><g fill="#000000" fill-opacity="1"><g transform="translate(215.000541, 258.946125)"><g><path d="M 5.53125 -1.875 L 1.625 -1.875 L 0.796875 0 L 0.015625 0 L 3.21875 -7 L 3.953125 -7 L 7.15625 0 L 6.375 0 Z M 5.265625 -2.46875 L 3.578125 -6.234375 L 1.90625 -2.46875 Z M 4.28125 -7.625 C 4.125 -7.625 3.984375 -7.660156 3.859375 -7.734375 C 3.742188 -7.804688 3.613281 -7.90625 3.46875 -8.03125 C 3.351562 -8.132812 3.257812 -8.207031 3.1875 -8.25 C 3.113281 -8.289062 3.039062 -8.3125 2.96875 -8.3125 C 2.8125 -8.3125 2.6875 -8.253906 2.59375 -8.140625 C 2.5 -8.023438 2.445312 -7.867188 2.4375 -7.671875 L 2.015625 -7.671875 C 2.023438 -8.003906 2.109375 -8.269531 2.265625 -8.46875 C 2.429688 -8.664062 2.644531 -8.765625 2.90625 -8.765625 C 3.0625 -8.765625 3.195312 -8.726562 3.3125 -8.65625 C 3.4375 -8.59375 3.570312 -8.5 3.71875 -8.375 C 3.832031 -8.28125 3.925781 -8.207031 4 -8.15625 C 4.070312 -8.113281 4.144531 -8.09375 4.21875 -8.09375 C 4.363281 -8.09375 4.484375 -8.144531 4.578125 -8.25 C 4.671875 -8.363281 4.726562 -8.515625 4.75 -8.703125 L 5.171875 -8.703125 C 5.160156 -8.378906 5.070312 -8.117188 4.90625 -7.921875 C 4.75 -7.722656 4.539062 -7.625 4.28125 -7.625 Z M 4.28125 -7.625 "/></g></g></g><g fill="#000000" fill-opacity="1"><g transform="translate(224.907702, 258.946125)"><g><path d="M 4.203125 0.0625 C 3.503906 0.0625 2.875 -0.09375 2.3125 -0.40625 C 1.75 -0.71875 1.304688 -1.140625 0.984375 -1.671875 C 0.671875 -2.210938 0.515625 -2.820312 0.515625 -3.5 C 0.515625 -4.175781 0.671875 -4.78125 0.984375 -5.3125 C 1.304688 -5.851562 1.75 -6.28125 2.3125 -6.59375 C 2.875 -6.90625 3.503906 -7.0625 4.203125 -7.0625 C 4.890625 -7.0625 5.507812 -6.90625 6.0625 -6.59375 C 6.625 -6.289062 7.066406 -5.867188 7.390625 -5.328125 C 7.710938 -4.785156 7.875 -4.175781 7.875 -3.5 C 7.875 -2.820312 7.710938 -2.210938 7.390625 -1.671875 C 7.066406 -1.128906 6.625 -0.703125 6.0625 -0.390625 C 5.507812 -0.0859375 4.890625 0.0625 4.203125 0.0625 Z M 4.203125 -0.59375 C 4.753906 -0.59375 5.253906 -0.71875 5.703125 -0.96875 C 6.148438 -1.21875 6.5 -1.566406 6.75 -2.015625 C 7 -2.460938 7.125 -2.957031 7.125 -3.5 C 7.125 -4.039062 7 -4.535156 6.75 -4.984375 C 6.5 -5.429688 6.148438 -5.78125 5.703125 -6.03125 C 5.253906 -6.28125 4.753906 -6.40625 4.203125 -6.40625 C 3.648438 -6.40625 3.144531 -6.28125 2.6875 -6.03125 C 2.238281 -5.78125 1.882812 -5.429688 1.625 -4.984375 C 1.375 -4.535156 1.25 -4.039062 1.25 -3.5 C 1.25 -2.957031 1.375 -2.460938 1.625 -2.015625 C 1.882812 -1.566406 2.238281 -1.21875 2.6875 -0.96875 C 3.144531 -0.71875 3.648438 -0.59375 4.203125 -0.59375 Z M 4.203125 -0.59375 "/></g></g></g></svg>